#!OML:ASF I:\Actors\actors\Patient Classification 1\Patient 1\Session 1\Subject1.ASF
:FULLY-SPECIFIED
:DEGREES
960
root -0.0702527 17.7471 7.77231 26.7737 -21.2111 -11.4907
lowerback 16.0575 -1.04187 2.76355
upperback 9.48745 -1.13361 3.5526
thorax 1.11993 -0.630768 2.33847
lowerneck 10.1159 -18.4757 -14.2325
upperneck 11.4309 -27.4727 18.5989
head 6.48081 -13.7809 6.36932
rclavicle -4.21423e-014 8.34896e-015
rhumerus 64.1882 13.882 29.195
rradius 131.104
rwrist -72.9084
rhand 69.4753 451.071
rfingers 7.12502
rthumb 73.8367 -24.658
lclavicle -4.21423e-014 8.34896e-015
lhumerus -22.694 -56.033 92.4711
lradius 97.2278
lwrist 33.0676
lhand -12.2834 0.38109
lfingers 7.12502
lthumb 13.7839 29.9045
rfemur -32.6158 25.3319 17.5987
rtibia 10.4653
rfoot -5.03112 -9.48381
rtoes -7.8262
lfemur -14.5756 -41.476 3.99467
ltibia -2.91953
lfoot -63.4161 58.4234
ltoes 37.8646
961
root -0.0710748 17.7458 7.76613 26.7364 -21.1898 -11.4555
lowerback 16.0322 -0.976959 2.73479
upperback 9.49071 -1.0542 3.48966
thorax 1.13343 -0.59 2.27592
lowerneck 10.0318 -18.5793 -14.094
upperneck 11.5512 -27.5865 18.4333
head 6.50888 -13.824 6.27555
rclavicle 3.18055e-015 4.37326e-015
rhumerus 64.3425 14.051 29.057
rradius 130.462
rwrist -71.4936
rhand 67.9398 451.685
rfingers 7.12502
rthumb 74.3336 -30.3692
lclavicle 3.18055e-015 4.37326e-015
lhumerus -22.6142 -56.1814 92.4109
lradius 97.2457
lwrist 33.319
lhand -11.9827 0.472748
lfingers 7.12502
lthumb 14.0736 29.9762
rfemur -32.5756 25.2213 17.6206
rtibia 10.433
rfoot -5.0165 -9.40395
rtoes -7.48293
lfemur -14.5712 -41.4167 3.96103
ltibia -2.92655
lfoot -63.1284 58.5187
ltoes 37.7206
962
root -0.0720947 17.7449 7.75953 26.6905 -21.1418 -11.4097
lowerback 15.9792 -0.91877 2.73799
upperback 9.51454 -0.981994 3.41232
thorax 1.18305 -0.550983 2.18068
lowerneck 10.0004 -18.6936 -13.9716
upperneck 11.533 -27.7107 18.3522
head 6.50075 -13.88 6.21586
rclavicle 1.43125e-014 -1.78906e-014
rhumerus 64.4148 14.1603 28.9732
rradius 129.732
rwrist -69.8808
rhand 67.0242 451.237
rfingers 7.12502
rthumb 74.5665 -33.1044
lclavicle 1.43125e-014 -1.78906e-014
lhumerus -22.4554 -56.384 92.2701
lradius 97.27
lwrist 33.5455
lhand -11.6282 0.572664
lfingers 7.12502
lthumb 14.4153 30.0521
rfemur -32.5538 25.2023 17.5818
rtibia 10.4088
rfoot -5.02284 -9.42269
rtoes -7.04318
lfemur -14.6147 -41.2974 3.9367
ltibia -2.88391
lfoot -62.7791 58.4983
ltoes 37.6382
963
root -0.072086 17.7434 7.75193 26.6716 -21.122 -11.4294
lowerback 15.9072 -0.840739 2.81774
upperback 9.54117 -0.875889 3.30375
thorax 1.2439 -0.491011 2.00433
lowerneck 10.0282 -18.7939 -13.6421
upperneck 11.4172 -27.7719 18.18
head 6.39734 -13.9074 6.12842
rclavicle -5.88403e-014 3.49861e-014
rhumerus 64.4433 14.3471 28.9562
rradius 128.911
rwrist -67.9212
rhand 66.22 454.356
rfingers 7.12502
rthumb 74.7296 -39.0923
lclavicle -5.88403e-014 3.49861e-014
lhumerus -22.2985 -56.6484 92.0791
lradius 97.3127
lwrist 33.7735
lhand -11.1556 0.759715
lfingers 7.12502
lthumb 14.8706 30.206
rfemur -32.5566 25.1939 17.6212
rtibia 10.4193
rfoot -5.02072 -9.40326
rtoes -6.84589
lfemur -14.6497 -41.3103 3.98685
ltibia -2.83305
lfoot -62.8533 58.4233
ltoes 37.6614
964
root -0.0670114 17.7396 7.74127 26.7916 -21.1307 -11.5666
lowerback 15.7664 -0.771455 3.03194
upperback 9.55315 -0.767459 3.19359
thorax 1.32497 -0.424074 1.7497
lowerneck 9.96247 -18.8692 -13.3883
upperneck 11.4154 -27.8242 18.0389
head 6.35908 -13.9233 6.0464
rclavicle 1.59028e-015 9.54166e-015
rhumerus 64.5262 14.5279 28.9524
rradius 127.985
rwrist -65.3848
rhand 66.0392 455.255
rfingers 7.12502
rthumb 74.7608 -40.6445
lclavicle 1.59028e-015 9.54166e-015
lhumerus -22.1585 -56.9153 91.8984
lradius 97.326
lwrist 33.7674
lhand -11.0422 0.959297
lfingers 7.12502
lthumb 14.9798 30.3975
rfemur -32.7125 25.051 17.7843
rtibia 10.5091
rfoot -5.01693 -9.18839
rtoes -6.82732
lfemur -14.8146 -41.3826 4.24712
ltibia -2.77648
lfoot -63.2632 58.3496
ltoes 37.8208
965
root -0.0583927 17.734 7.72693 27.0536 -21.1361 -11.7059
lowerback 15.5324 -0.705807 3.27575
upperback 9.53383 -0.66326 3.09256
thorax 1.42286 -0.357495 1.48811
lowerneck 9.94707 -18.8523 -13.5668
upperneck 11.3976 -27.8763 18.4401
head 6.4514 -13.9504 6.17167
rclavicle 2.54444e-014 -9.10434e-014
rhumerus 64.5646 14.5789 28.7797
rradius 126.954
rwrist -62.1468
rhand 65.7416 454.242
rfingers 7.12502
rthumb 74.8077 -40.7116
lclavicle 2.54444e-014 -9.10434e-014
lhumerus -22.0465 -57.2298 91.7857
lradius 97.2956
lwrist 33.5113
lhand -11.4824 1.03054
lfingers 7.12502
lthumb 14.5557 30.4998
rfemur -33.108 24.8165 17.8748
rtibia 10.6862
rfoot -5.01716 -8.89214
rtoes -6.94912
lfemur -15.2285 -41.2181 4.64827
ltibia -2.69498
lfoot -63.3637 58.2421
ltoes 38.0119
966
root -0.05381 17.7315 7.7158 27.1685 -21.1467 -11.7295
lowerback 15.4494 -0.634895 3.31692
upperback 9.49339 -0.567685 3.012
thorax 1.42115 -0.305045 1.36589
lowerneck 10.0188 -18.8217 -13.6551
upperneck 11.2736 -27.8734 18.729
head 6.45653 -13.9584 6.27681
rclavicle 0 3.37934e-014
rhumerus 64.6852 14.5713 28.4661
rradius 125.759
rwrist -57.908
rhand 65.4034 450.92
rfingers 7.12502
rthumb 74.8542 -38.6248
lclavicle 0 3.37934e-014
lhumerus -22.1914 -57.624 91.9523
lradius 97.1189
lwrist 32.9533
lhand -12.6022 0.234944
lfingers 7.12502
lthumb 13.4767 29.7789
rfemur -33.349 24.7077 17.843
rtibia 10.8079
rfoot -5.02945 -8.76662
rtoes -6.94599
lfemur -15.4639 -41.2211 4.84189
ltibia -2.67168
lfoot -63.5843 58.203
ltoes 38.1967
967
root -0.0522329 17.7313 7.70862 27.1473 -21.1509 -11.7356
lowerback 15.4744 -0.567143 3.28183
upperback 9.46737 -0.480818 2.94337
thorax 1.37898 -0.261192 1.30168
lowerneck 9.94947 -18.9086 -13.3004
upperneck 11.2848 -27.8982 18.3546
head 6.3679 -13.9592 6.11977
rclavicle 4.77083e-014 -2.78299e-015
rhumerus 64.8874 14.5429 28.2545
rradius 124.412
rwrist -53.0583
rhand 66.0406 275.996
rfingers 7.12502
rthumb 74.7605 -29.3877
lclavicle 4.77083e-014 -2.78299e-015
lhumerus -22.5952 -58.2513 92.3855
lradius 96.6077
lwrist 31.5251
lhand -14.5594 -2.07215
lfingers 7.12502
lthumb 11.5896 27.5874
rfemur -33.3672 24.6634 17.8632
rtibia 10.856
rfoot -5.05598 -8.71689
rtoes -6.85701
lfemur -15.4582 -41.5215 4.91332
ltibia -2.72448
lfoot -64.1467 58.2746
ltoes 38.3695
968
root -0.0533475 17.7335 7.70373 27.0147 -21.0374 -11.7235
lowerback 15.4633 -0.548587 3.34771
upperback 9.52984 -0.45274 2.85458
thorax 1.45081 -0.241031 1.16741
lowerneck 9.83203 -18.9724 -13.1223
upperneck 11.4134 -27.9626 18.2282
head 6.3944 -13.9752 6.03869
rclavicle 1.03368e-014 -2.46493e-014
rhumerus 64.9788 14.3796 27.8653
rradius 122.858
rwrist -48.263
rhand 62.3693 282.451
rfingers 7.12502
rthumb 74.9429 -36.514
lclavicle 1.03368e-014 -2.46493e-014
lhumerus -22.1057 -58.1452 92.0024
lradius 97.1498
lwrist 33.5505
lhand -12.2262 0.922728
lfingers 7.12502
lthumb 13.839 30.4423
rfemur -33.1665 24.6858 17.9307
rtibia 10.7635
rfoot -5.03538 -8.86307
rtoes -7.02003
lfemur -15.3326 -41.7413 4.90233
ltibia -2.79126
lfoot -64.1514 58.427
ltoes 38.2142
969
root -0.058117 17.7384 7.70169 26.6831 -20.8331 -11.6487
lowerback 15.5346 -0.570547 3.40961
upperback 9.66144 -0.47744 2.76398
thorax 1.55386 -0.247146 1.04176
lowerneck 9.85681 -18.9305 -13.2248
upperneck 11.4704 -27.9753 18.5416
head 6.47365 -13.9813 6.13987
rclavicle -5.56597e-015 -1.51076e-014
rhumerus 64.9946 14.0109 26.943
rradius 120.999
rwrist -43.1834
rhand 59.5764 287.198
rfingers 7.12502
rthumb 74.5031 -41.8803
lclavicle -5.56597e-015 -1.51076e-014
lhumerus -21.7035 -58.3106 91.729
lradius 97.363
lwrist 34.4341
lhand -11.5915 2.38753
lfingers 7.12502
lthumb 14.4506 31.8644
rfemur -32.6423 24.8659 17.9883
rtibia 10.4767
rfoot -4.97788 -9.27141
rtoes -6.95208
lfemur -14.9558 -41.8087 4.63748
ltibia -2.87236
lfoot -63.4361 58.6288
ltoes 37.7211
